<svg xmlns="http://www.w3.org/2000/svg" width="14" height="14" viewBox="0 0 14 14">
    <g fill="none" fill-rule="evenodd">
        <g fill="#000" fill-rule="nonzero">
            <g>
                <g>
                    <g>
                        <path d="M7.25 13.982c1.07-.152 2.01-1.27 2.6-2.92-.854-.191-1.725-.294-2.6-.306v3.226zM8.96 13.72c.064-.019.127-.037.19-.058l.156-.053c.062-.021.123-.043.184-.067l.156-.061.178-.075.153-.07c.058-.028.116-.055.173-.084l.15-.079c.056-.03.112-.06.167-.092.05-.028.098-.057.147-.086l.162-.1c.048-.03.096-.062.143-.094.053-.035.105-.072.157-.11l.138-.1.152-.118c.044-.035.089-.07.132-.107.05-.042.098-.085.147-.128l.127-.114c.047-.044.094-.09.14-.136l.121-.12.022-.024c-.546-.282-1.12-.503-1.714-.66-.31.986-.859 1.878-1.6 2.597l.061-.015.159-.047zM14 7.246h-3c-.011 1.171-.181 2.336-.505 3.462.66.176 1.298.43 1.899.755.987-1.19 1.552-2.672 1.606-4.217zM7.25 6.746h3.25c-.013-1.13-.179-2.253-.493-3.339-.905.207-1.829.317-2.757.329v3.01zM7.25.01v3.226c.875-.013 1.746-.115 2.6-.306C9.26 1.28 8.32.162 7.25.01zM7.25 10.256c.928.012 1.852.122 2.757.329.314-1.086.48-2.209.493-3.339H7.25v3.01zM12.394 2.528c-.601.326-1.239.58-1.9.756.325 1.126.495 2.29.506 3.462h3c-.055-1.545-.62-3.028-1.606-4.218zM12.056 2.149l-.022-.023-.12-.12c-.047-.046-.093-.092-.141-.137l-.127-.113c-.049-.043-.097-.087-.147-.128-.043-.037-.088-.072-.132-.107l-.153-.12c-.045-.034-.09-.067-.137-.1-.052-.037-.104-.075-.158-.11-.047-.032-.094-.063-.142-.093-.054-.035-.108-.069-.163-.102l-.146-.085L10.3.818 10.15.74c-.058-.029-.116-.057-.175-.084-.05-.024-.101-.047-.153-.07L9.643.511 9.488.449c-.06-.023-.122-.044-.184-.066L9.148.33c-.063-.02-.126-.04-.19-.058L8.801.228l-.06-.015c.74.719 1.29 1.611 1.598 2.596.595-.156 1.17-.378 1.717-.66zM0 6.746h3c.011-1.172.181-2.336.505-3.462-.66-.176-1.298-.43-1.899-.756C.62 3.718.054 5.201 0 6.746zM6.75 13.982v-3.226c-.875.012-1.746.115-2.6.306.59 1.65 1.53 2.768 2.6 2.92zM6.75 7.246H3.5c.013 1.13.179 2.253.493 3.339.905-.207 1.829-.317 2.757-.33V7.247zM6.75.01c-1.07.152-2.01 1.27-2.6 2.92.854.19 1.725.293 2.6.306V.01zM6.75 3.736c-.928-.012-1.852-.122-2.757-.329-.314 1.086-.48 2.209-.493 3.339h3.25v-3.01zM5.258.212c-.02.006-.04.01-.061.015-.053.014-.105.03-.158.045L4.85.33c-.053.017-.106.036-.158.054L4.51.449c-.052.02-.104.04-.156.062l-.178.075-.153.07c-.058.027-.115.055-.173.084L3.7.818c-.056.03-.111.061-.167.093-.05.028-.099.056-.147.086-.055.032-.108.066-.162.1-.048.03-.096.062-.143.094-.053.035-.105.072-.157.11-.046.032-.092.066-.138.1-.051.038-.1.078-.152.118-.044.035-.089.07-.132.107-.05.042-.098.085-.146.127-.043.038-.086.075-.128.115-.047.044-.094.09-.14.136l-.121.12-.022.024c.546.282 1.12.503 1.715.66.308-.985.858-1.877 1.598-2.596zM2.087 11.986l.14.137.127.113c.049.043.097.086.147.128l.132.107c.05.04.1.08.153.12l.136.1c.053.037.106.075.159.11.047.032.094.063.142.093.054.035.108.069.163.102.048.03.097.058.146.085l.168.094.15.077c.058.03.116.057.176.085l.152.07.179.074.155.062c.06.023.122.045.184.066l.156.054c.063.02.126.038.19.057l.157.045.06.015c-.74-.72-1.29-1.612-1.598-2.597-.594.157-1.17.378-1.715.66l.022.023c.037.04.078.08.119.12zM1.606 11.463c.601-.325 1.239-.579 1.9-.755C3.18 9.582 3.01 8.418 3 7.246H0c.055 1.545.62 3.028 1.606 4.217z" transform="translate(-1015 -800) translate(994 591) translate(21 201) translate(0 8)"/>
                    </g>
                </g>
            </g>
        </g>
    </g>
</svg>
