<svg xmlns="http://www.w3.org/2000/svg" width="14" height="10" viewBox="0 0 14 10">
    <g fill="none" fill-rule="evenodd">
        <g fill="#000" fill-rule="nonzero">
            <g>
                <g>
                    <g>
                        <path d="M.106.797c1.975 1.521 5.44 4.198 6.458 5.033.137.113.284.17.436.17.152 0 .298-.057.435-.169 1.019-.835 4.484-3.513 6.459-5.034.123-.095.142-.261.042-.377-.23-.267-.573-.42-.94-.42H1.004C.637 0 .294.153.064.42c-.1.116-.08.282.042.377z" transform="translate(-1014 -756) translate(994 591) translate(20 156) translate(0 9)"/>
                        <path d="M13.83 2.025c-.103-.044-.224-.029-.31.038-2.131 1.643-4.85 3.75-5.706 4.451-.48.395-1.147.395-1.628 0-.912-.748-3.966-3.11-5.706-4.45-.086-.068-.208-.083-.31-.04-.104.044-.17.138-.17.241V8.94C0 9.524.523 10 1.167 10h11.666C13.477 10 14 9.524 14 8.939V2.265c0-.103-.066-.197-.17-.24z" transform="translate(-1014 -756) translate(994 591) translate(20 156) translate(0 9)"/>
                    </g>
                </g>
            </g>
        </g>
    </g>
</svg>
