<svg xmlns="http://www.w3.org/2000/svg" width="12" height="16" viewBox="0 0 12 16">
    <g fill="none" fill-rule="evenodd">
        <g fill="#000" fill-rule="nonzero">
            <g>
                <g>
                    <path d="M6 6c-3.308 0-6 2.393-6 5.333 0 .883.248 1.758.72 2.535l4.952 7.96c.066.106.191.172.328.172s.262-.066.328-.172l4.953-7.963c.47-.774.719-1.649.719-2.532C12 8.393 9.308 6 6 6zm0 8c-1.654 0-3-1.122-3-2.5S4.346 9 6 9s3 1.122 3 2.5S7.654 14 6 14z" transform="translate(-1013 -663) translate(994 591) translate(19 66)"/>
                </g>
            </g>
        </g>
    </g>
</svg>
